<svg width="100" height="100" viewBox="0 0 100 100" fill="none" xmlns="http://www.w3.org/2000/svg">
<circle cx="50" cy="50" r="50" fill="#1D1D1B"/>
<path d="M38.5 25.5V21H60.5V25.5H69.5V30H74V38.5H78.5V60H74V69.5H65V73.5H60.5V78.5H38.5V73.5H34V69.5H25.5V60H21V38.5H25.5V30H34V25.5H38.5Z" fill="white" stroke="white"/>
<path d="M43 34.5V30H56V34.5H60V39H65V43.5H69V56.5H65V61H60V65.5H56V69.5H43V65.5H38.5V61H34V56.5H30V43.5H34V39H38.5V34.5H43Z" fill="#2FB273"/>
<path d="M43.5 43V39H56.5V43H61V56H56.5V60.5H43.5V56H39V43H43.5Z" fill="#00381A"/>
<rect x="47" y="47" width="6" height="6" fill="#DFEE84"/>
</svg>
