<svg width="463" height="463" viewBox="0 0 463 463" fill="none" xmlns="http://www.w3.org/2000/svg">
<path fill-rule="evenodd" clip-rule="evenodd" d="M150.467 0.670837C141.185 0.670837 132.282 4.35834 125.719 10.9221L10.9221 125.719C4.35834 132.282 0.670837 141.185 0.670837 150.467L0.670868 312.814C0.670868 322.097 4.35834 330.999 10.9221 337.563L125.719 452.359C132.282 458.923 141.185 462.611 150.467 462.611H312.814C322.097 462.611 330.999 458.923 337.563 452.359L452.359 337.563C458.923 330.999 462.611 322.097 462.611 312.814V150.467C462.611 141.185 458.923 132.282 452.359 125.719L337.563 10.9221C330.999 4.35834 322.097 0.670837 312.814 0.670837H150.467ZM86 67C75.5066 67 67 75.5066 67 86V378C67 388.493 75.5066 397 86 397H378C388.493 397 397 388.493 397 378V86C397 75.5066 388.493 67 378 67H86Z" fill="black" fill-opacity="0.48"/>
</svg>
